<?xml version="1.0" encoding="UTF-8" standalone="no"?><!DOCTYPE svg PUBLIC "-//W3C//DTD SVG 1.1//EN" "http://www.w3.org/Graphics/SVG/1.1/DTD/svg11.dtd"><svg width="100%" height="100%" viewBox="0 0 2533 2335" version="1.1" xmlns="http://www.w3.org/2000/svg" xmlns:xlink="http://www.w3.org/1999/xlink" xml:space="preserve" xmlns:serif="http://www.serif.com/" style="fill-rule:evenodd;clip-rule:evenodd;stroke-miterlimit:10;"><rect id="Artboard1" x="0" y="0" width="2532.53" height="2334.11" style="fill:none;"/><clipPath id="_clip1"><rect id="undraw_book_lover_mkck--1-" serif:id="undraw_book_lover_mkck (1)" x="288.082" y="710.253" width="2013.94" height="1601.09"/></clipPath><g clip-path="url(#_clip1)"><path d="M1469.19,980.829c-127.432,-4.43 -248.819,-45.562 -364.713,-90.573c-115.893,-45.01 -230.684,-94.885 -355.064,-118.729c-80,-15.338 -171.498,-17.504 -235.942,25.38c-62.043,41.349 -82.087,112.527 -92.857,178.645c-8.112,49.736 -12.877,102.072 9.353,148.638c15.417,32.33 42.805,59.502 61.727,90.572c65.901,107.743 19.335,240.609 -52.079,345.811c-33.473,49.362 -72.36,96.48 -98.193,148.972c-25.833,52.493 -37.804,112.724 -15.201,166.319c22.427,53.163 75.845,93.015 133.694,121.073c117.528,57.001 255.966,73.304 391.057,82.539c298.949,20.457 599.473,11.597 899.21,2.737c110.932,-3.289 222.336,-6.616 331.457,-23.766c60.605,-9.53 123.159,-24.632 167.165,-61.136c55.84,-46.33 69.682,-124.794 32.272,-182.878c-62.791,-97.445 -236.277,-121.644 -280.224,-226.235c-24.14,-57.553 0.669,-121.663 35.756,-175.062c75.294,-114.515 201.485,-214.992 208.14,-345.889c4.568,-89.923 -56.115,-179.944 -149.917,-222.494c-98.311,-44.754 -234.682,-39.084 -307.18,34.733c-74.702,76.061 -205.954,105.241 -318.461,101.343Z" style="fill:#9e0031;fill-opacity:0.1;fill-rule:nonzero;"/><path d="M1145.47,2069.83l-673.939,-3.288l-66.965,-157.065l236.788,-17.189l-41.269,-172.207l468.339,-60.703l-448.472,-155.903l39.615,-9.412l721.136,117.646l-39.714,268.745l-56.765,147.693l-138.754,41.683Z" style="fill:#9e0031;fill-rule:nonzero;"/><path d="M481.869,2000.76c0,0 41.348,-6.615 66.157,22.604c0,0 -18.193,14.334 -57.336,-5.513l-8.821,-17.091Z" style="fill:#9e0031;fill-rule:nonzero;"/><path d="M477.537,2000.11c0,0 -26.384,32.468 -13.389,68.618c0,0 21.501,-8.604 23.844,-52.434l-10.455,-16.184Z" style="fill:#9e0031;fill-rule:nonzero;"/><path d="M453.831,1946.73c0,0 16.539,-30.342 82.696,12.129c0,0 -8.821,20.398 -38.04,18.744c-29.22,-1.654 -36.938,-14.885 -44.656,-30.873Z" style="fill:#9e0031;fill-rule:nonzero;"/><path d="M449.558,1944.54c0,0 -34.319,-3.938 -37.647,74.624c0,0 21.757,4.509 37.214,-20.339c15.456,-24.849 9.116,-38.789 0.433,-54.285Z" style="fill:#9e0031;fill-rule:nonzero;"/><path d="M429.573,1881.87c0,0 19.296,-53.477 89.312,-15.437c0,0 -15.988,49.067 -82.145,33.63l-7.167,-18.193Z" style="fill:#9e0031;fill-rule:nonzero;"/><path d="M408.072,1801.93c0,0 36.386,-54.029 100.89,-3.938c0,0 -22.604,50.72 -95.377,23.155l-5.513,-19.217Z" style="fill:#9e0031;fill-rule:nonzero;"/><path d="M400.353,1725.85c0,0 42.451,-49.637 106.325,0c0,0 -40.246,43.554 -106.325,12.681l0,-12.681Z" style="fill:#9e0031;fill-rule:nonzero;"/><path d="M393.737,1651.95c0,0 43.003,-51.823 104.198,-2.757c0,0 -48.515,45.759 -104.198,14.886l0,-12.129Z" style="fill:#9e0031;fill-rule:nonzero;"/><path d="M397.597,1586.35c0,0 45.286,-66.709 102.544,-21.501c0,0 -48.516,57.336 -102.544,34.181l0,-12.68Z" style="fill:#9e0031;fill-rule:nonzero;"/><path d="M408.072,1509.71c0,0 47.964,-66.157 103.646,-15.436c0,0 -56.785,57.336 -103.646,27.565l0,-12.129Z" style="fill:#9e0031;fill-rule:nonzero;"/><path d="M424.06,1441.21c0,0 56.785,-62.18 106.324,-37.411c0,0 -59.167,66.04 -108.805,53.911l2.481,-16.5Z" style="fill:#9e0031;fill-rule:nonzero;"/><path d="M443.907,1376.28c0,0 65.527,-76.16 103.647,-50.721c0,0 -48.28,59.07 -108.294,64.977l4.647,-14.256Z" style="fill:#9e0031;fill-rule:nonzero;"/><path d="M472.555,1300.96c0,0 57.357,-62.18 99.256,-46.743c0,0 -49.066,64.503 -106.954,66.157l7.698,-19.414Z" style="fill:#9e0031;fill-rule:nonzero;"/><path d="M498.487,1230.51c0,0 63.401,-59.541 90.966,-49.067c0,0 -45.759,66.158 -93.723,62.299l2.757,-13.232Z" style="fill:#9e0031;fill-rule:nonzero;"/><path d="M523.847,1165.46c0,0 54.58,-71.139 84.371,-65.625c0,0 -33.099,63.42 -84.371,72.852l0,-7.227Z" style="fill:#9e0031;fill-rule:nonzero;"/><path d="M551.373,1077.74c0,0 48.24,-54.521 74.309,-54.403c0,0 -38.08,72.852 -76.297,72.183l1.988,-17.78Z" style="fill:#9e0031;fill-rule:nonzero;"/><path d="M567.676,1019.34l46.606,-113.57c0,0 2.323,102.662 -52.532,134.638l5.926,-21.068Z" style="fill:#9e0031;fill-rule:nonzero;"/><path d="M586.598,894.096c0,0 7.719,-94.846 2.757,-102.564c0,0 33.315,78.857 -3.072,144.463l0.315,-41.899Z" style="fill:#9e0031;fill-rule:nonzero;"/><path d="M427.761,1880.61c0,0 -48.318,-29.948 -79.605,43.317c0,0 43.002,28.55 85.296,-24.632l-5.691,-18.685Z" style="fill:#9e0031;fill-rule:nonzero;"/><path d="M406.516,1798.88c0,0 -59.266,-27.034 -88.013,49.46c0,0 45.779,31.504 93.408,-30.125l-5.395,-19.335Z" style="fill:#9e0031;fill-rule:nonzero;"/><path d="M397.597,1730.4c0,0 -42.451,-49.638 -106.325,0c0,0 40.246,43.553 106.325,12.68l0,-12.68Z" style="fill:#9e0031;fill-rule:nonzero;"/><path d="M392.28,1651.95c0,0 -43.002,-51.823 -104.198,-2.757c0,0 48.516,45.759 104.198,14.886l0,-12.129Z" style="fill:#9e0031;fill-rule:nonzero;"/><path d="M397.597,1588.24c0,0 -30.165,-74.722 -95.732,-42.589c0,0 35.442,66.256 93.054,54.994l2.678,-12.405Z" style="fill:#9e0031;fill-rule:nonzero;"/><path d="M411.872,1509.34c0,0 -29.988,-76.022 -96.48,-40.777c0,0 40.718,69.682 93.526,52.512l2.954,-11.735Z" style="fill:#9e0031;fill-rule:nonzero;"/><path d="M430.459,1441.59c0,0 -11.814,-83.347 -66.945,-90.809c0,0 11.695,87.895 59.522,105.832l7.423,-15.023Z" style="fill:#9e0031;fill-rule:nonzero;"/><path d="M445.305,1376.43c0,0 -4.608,-100.418 -50.189,-103.923c0,0 1.536,76.219 45.05,118.139l5.139,-14.216Z" style="fill:#9e0031;fill-rule:nonzero;"/><path d="M477.281,1298.15c0,0 -13.586,-83.504 -57.1,-93.703c0,0 5.395,80.866 52.788,114.2l4.312,-20.497Z" style="fill:#9e0031;fill-rule:nonzero;"/><path d="M503.646,1231.2c0,0 -0.453,-86.989 -27.034,-99.767c0,0 -16.481,78.758 19.335,110.872l7.699,-11.105Z" style="fill:#9e0031;fill-rule:nonzero;"/><path d="M525.875,1164.48c0,0 -3.721,-89.569 -31.247,-102.19c0,0 -9.412,70.883 27.132,108.057l4.115,-5.867Z" style="fill:#9e0031;fill-rule:nonzero;"/><path d="M555.213,1084.89c0,0 -0.158,-72.852 -19.808,-89.943c0,0 -19.532,79.803 9.55,104.592l10.258,-14.649Z" style="fill:#9e0031;fill-rule:nonzero;"/><path d="M565.373,1015.76l-19.119,-121.249c0,0 -25.971,99.354 20.024,143.144l-0.905,-21.895Z" style="fill:#9e0031;fill-rule:nonzero;"/><path d="M569.094,895.238c0,0 -49.067,-81.516 -48.062,-90.573c0,0 5.217,85.434 66.945,127.983l-18.883,-37.41Z" style="fill:#9e0031;fill-rule:nonzero;"/><path d="M574.844,871.157c0,0 -46.311,-115.775 -67.261,-125.148c0,0 66.158,33.63 71.12,121.84l-3.859,3.308Z" style="fill:#9e0031;fill-rule:nonzero;"/><path d="M549.148,1096.21l-3.17,-0.965c39.084,-127.452 48.831,-208.711 27.468,-229.09l2.264,-2.402c22.663,21.501 13.468,101.874 -26.562,232.457Z" style="fill:#444053;fill-rule:nonzero;"/><path d="M441.524,1394.63l-4.686,-1.674c4.155,-11.676 8.624,-23.529 13.311,-35.205c40.797,-101.678 75.529,-196.267 97.798,-268.883l4.076,-1.969c-22.308,72.754 -56.431,170.966 -97.267,272.782c-4.667,11.459 -9.116,23.253 -13.232,34.949Z" style="fill:#444053;fill-rule:nonzero;"/><path d="M540.131,2096.13c-0.631,-0.689 -63.972,-72.025 -108.136,-193.806c-25.878,-71.297 -40.279,-146.25 -42.668,-222.06c-3.032,-94.767 16.854,-200.579 50.918,-296.705l3.701,4.332c-76.475,215.74 -46.093,400.607 -5.788,511.933c43.691,120.678 106.324,191.226 106.934,191.935l-4.961,4.371Z" style="fill:#444053;fill-rule:nonzero;"/><path d="M1529.97,1944.68c0,0 -44.637,54.481 -9.195,136.844l-356.384,154.564l-34.201,7.167l-15.752,-68.914l10.534,-86.97l0,-47.531l404.998,-95.16Z" style="fill:#d5d6db;fill-rule:nonzero;"/><path d="M404.567,1909.48l493.267,-89.923l653.6,104.119l-405.963,146.157l-740.904,-160.353Z" style="fill:#9e0031;fill-rule:nonzero;"/><path d="M404.567,1909.48l493.267,-89.923l653.6,104.119l-405.963,146.157l-740.904,-160.353Z" style="fill:#9e0031;fill-rule:nonzero;"/><path d="M404.567,1909.45c0,0 -46.133,87.403 7.029,168.131l731.473,158.502c0,0 -45.404,-69.623 2.343,-166.26l-740.845,-160.373Z" style="fill:#9e0031;fill-rule:nonzero;"/><path d="M404.567,1909.45c0,0 -46.133,87.403 7.029,168.131l731.473,158.502c0,0 -45.404,-69.623 2.343,-166.26l-740.845,-160.373Z" style="fill-opacity:0.1;fill-rule:nonzero;"/><path d="M426.363,1939.76c0,0 -26.364,63.952 0,105.34" style="fill-opacity:0.1;fill-rule:nonzero;"/><path d="M1143.07,2236.09l408.365,-174.254c0,0 22.84,4.922 8.073,21.659c-14.768,16.736 -408.562,169.331 -408.562,169.331l-739.349,-175.238l731.473,158.502Z" style="fill:#9e0031;fill-rule:nonzero;"/><path d="M1143.07,2236.09l408.365,-174.254c0,0 22.84,4.922 8.073,21.659c-14.768,16.736 -408.562,169.331 -408.562,169.331l-739.349,-175.238l731.473,158.502Z" style="fill-opacity:0.1;fill-rule:nonzero;"/><path d="M1109.6,2087.43c0,0 -39.38,47.256 0,118.139" style="fill-opacity:0.1;fill-rule:nonzero;"/><path d="M1300.25,2086.63l-176.635,58.93l0.623,1.868l176.635,-58.93l-0.623,-1.868Z" style="fill-opacity:0.1;"/><path d="M1335.63,2080.77l-212.07,80.643l0.7,1.84l212.069,-80.642l-0.699,-1.841Z" style="fill-opacity:0.1;"/><path d="M1368.12,2080.49l-243.377,99.618l0.746,1.822l243.377,-99.618l-0.746,-1.822Z" style="fill-opacity:0.1;"/><path d="M1403.45,2071.95l-275.869,124.617l0.811,1.795l275.869,-124.618l-0.811,-1.794Z" style="fill-opacity:0.1;"/><path d="M1433.13,2071.99l-303.369,132.601l0.789,1.805l303.368,-132.602l-0.788,-1.804Z" style="fill-opacity:0.1;"/><path d="M1498.06,2060.97l-363.721,157.095l0.781,1.808l363.721,-157.095l-0.781,-1.808Z" style="fill-opacity:0.1;"/><path d="M587.819,1919.08l346.539,-72.852l211.113,40.364l-283.965,91.558l-273.687,-59.07Z" style="fill:#fff;fill-opacity:0.3;fill-rule:nonzero;"/><path d="M1551.43,1923.67c0,0 17.918,7.226 7.403,18.39c-10.514,11.164 -413.425,127.767 -413.425,127.767l406.022,-146.157Z" style="fill:#9e0031;fill-rule:nonzero;"/><path d="M1725.47,1755.3c0,0 -44.617,54.462 -9.175,136.844l-356.384,154.564l-34.201,7.207l-15.752,-68.914l10.692,-86.95l0,-47.59l404.82,-95.161Z" style="fill:#d5d6db;fill-rule:nonzero;"/><path d="M600.086,1720.08l493.247,-89.903l653.62,104.119l-405.963,146.157l-740.904,-160.373Z" style="fill:#3a3768;fill-rule:nonzero;"/><path d="M600.007,1720.08c0,0 -46.153,87.403 7.01,168.131l731.473,158.502c0,0 -45.385,-69.682 2.421,-166.28l-740.904,-160.353Z" style="fill:#3a3768;fill-rule:nonzero;"/><path d="M600.007,1720.08c0,0 -46.153,87.403 7.01,168.131l731.473,158.502c0,0 -45.385,-69.682 2.421,-166.28l-231.314,-50.071l-509.59,-110.282Z" style="fill-opacity:0.1;fill-rule:nonzero;"/><path d="M621.863,1750.38c0,0 -26.345,63.932 0,105.34" style="fill-opacity:0.1;fill-rule:nonzero;"/><path d="M1338.57,2046.71l408.385,-174.254c0,0 22.82,4.923 8.053,21.659c-14.767,16.736 -408.562,169.331 -408.562,169.331l-739.349,-175.238l731.473,158.502Z" style="fill:#3a3768;fill-rule:nonzero;"/><path d="M1338.57,2046.71l408.385,-174.254c0,0 22.82,4.923 8.053,21.659c-14.767,16.736 -408.562,169.331 -408.562,169.331l-739.349,-175.238l731.473,158.502Z" style="fill-opacity:0.1;fill-rule:nonzero;"/><path d="M1305.1,1898.06c0,0 -39.38,47.255 0,118.138" style="fill-opacity:0.1;fill-rule:nonzero;"/><path d="M1495.76,1897.28l-176.635,58.929l0.624,1.868l176.634,-58.93l-0.623,-1.867Z" style="fill-opacity:0.1;"/><path d="M1531.16,1891.4l-212.07,80.642l0.7,1.841l212.07,-80.642l-0.7,-1.841Z" style="fill-opacity:0.1;"/><path d="M1563.63,1891.09l-243.377,99.618l0.746,1.822l243.377,-99.618l-0.746,-1.822Z" style="fill-opacity:0.1;"/><path d="M1598.98,1882.57l-275.868,124.618l0.81,1.794l275.869,-124.617l-0.811,-1.795Z" style="fill-opacity:0.1;"/><path d="M1628.64,1882.58l-303.369,132.602l0.789,1.804l303.368,-132.602l-0.788,-1.804Z" style="fill-opacity:0.1;"/><path d="M1693.58,1871.56l-363.721,157.095l0.781,1.807l363.721,-157.094l-0.781,-1.808Z" style="fill-opacity:0.1;"/><path d="M783.338,1729.71l346.539,-72.852l211.113,40.364l-283.965,91.557l-273.687,-59.069Z" style="fill:#fff;fill-opacity:0.45;fill-rule:nonzero;"/><path d="M1746.95,1734.3c0,0 17.898,7.226 7.403,18.371c-10.495,11.144 -413.366,127.766 -413.366,127.766l405.963,-146.137Z" style="fill:#3a3768;fill-rule:nonzero;"/><path d="M1743.98,1538.66c0,0 -44.637,97.799 -9.195,180.161l-356.384,111.247l-34.123,7.226l-15.751,-68.914l10.534,-86.969l0,-47.59l404.919,-95.161Z" style="fill:#d5d6db;fill-rule:nonzero;"/><path d="M618.653,1503.45l493.267,-89.923l653.62,104.119l-405.982,146.157l-740.905,-160.353Z" style="fill:#9e0031;fill-rule:nonzero;"/><path d="M618.653,1503.43c0,0 -46.212,87.403 6.951,168.131l731.473,158.502c0,0 -45.405,-69.682 2.402,-166.26l-740.826,-160.373Z" style="fill:#9e0031;fill-rule:nonzero;"/><path d="M618.653,1503.43c0,0 -46.212,87.403 6.951,168.131l731.473,158.502c0,0 -45.405,-69.682 2.402,-166.26l-740.826,-160.373Z" style="fill-opacity:0.1;fill-rule:nonzero;"/><path d="M640.45,1533.74c0,0 -26.365,63.952 0,105.34" style="fill-opacity:0.1;fill-rule:nonzero;"/><path d="M1357.15,1830.07l408.365,-130.936c0,0 22.84,4.922 8.073,21.658c-14.767,16.736 -408.562,126.014 -408.562,126.014l-739.349,-175.238l731.473,158.502Z" style="fill:#9e0031;fill-rule:nonzero;"/><path d="M1357.15,1830.07l408.365,-130.936c0,0 22.84,4.922 8.073,21.658c-14.767,16.736 -408.562,126.014 -408.562,126.014l-739.349,-175.238l731.473,158.502Z" style="fill-opacity:0.1;fill-rule:nonzero;"/><path d="M1323.68,1681.41c0,0 -39.38,47.255 0,118.138" style="fill-opacity:0.1;fill-rule:nonzero;"/><path d="M1514.35,1680.63l-176.635,58.929l0.623,1.868l176.635,-58.93l-0.623,-1.867Z" style="fill-opacity:0.1;"/><path d="M1549.74,1674.76l-212.07,80.642l0.7,1.841l212.07,-80.642l-0.7,-1.841Z" style="fill-opacity:0.1;"/><path d="M1582.19,1674.46l-243.377,99.618l0.746,1.822l243.377,-99.618l-0.746,-1.822Z" style="fill-opacity:0.1;"/><path d="M1617.57,1665.92l-275.869,124.617l0.81,1.795l275.869,-124.618l-0.81,-1.794Z" style="fill-opacity:0.1;"/><path d="M1647.24,1665.95l-303.368,132.602l0.788,1.804l303.369,-132.602l-0.789,-1.804Z" style="fill-opacity:0.1;"/><path d="M1712.17,1654.94l-363.721,157.094l0.781,1.808l363.721,-157.095l-0.781,-1.807Z" style="fill-opacity:0.1;"/><path d="M801.905,1513.06l346.539,-72.852l211.114,40.364l-283.966,91.557l-273.687,-59.069Z" style="fill:#fff;fill-opacity:0.3;fill-rule:nonzero;"/><path d="M1765.52,1517.65c0,0 17.918,7.227 7.403,18.391c-10.514,11.164 -413.365,127.766 -413.365,127.766l405.962,-146.157Z" style="fill:#9e0031;fill-rule:nonzero;"/><path d="M899.291,919.948c0,0 -74.821,-4.509 -66.079,47.984c0,0 -1.752,9.274 6.655,13.488c0,0 0.138,-3.938 7.679,-2.58c2.691,0.463 5.429,0.595 8.152,0.394c3.67,-0.251 7.161,-1.689 9.943,-4.095c2.782,-2.407 21.048,-8.703 29.239,-43.121c0,0 6.065,-7.502 5.907,-9.431l-12.68,5.395c0,0 4.312,9.116 0.925,16.697c0,0 -0.413,-16.363 -2.855,-15.988c-0.492,0 -6.556,3.17 -6.556,3.17c0,0 7.423,15.889 1.811,27.427c0,0 2.127,-19.571 -4.135,-26.285l-8.899,5.198c0,0 8.683,16.401 2.795,29.79c0,0 1.517,-20.536 -4.666,-28.53l-8.073,6.301c0,0 8.171,16.165 3.19,27.27c0,0 -0.65,-23.904 -4.922,-25.715c0,0 -7.069,6.222 -8.132,8.782c0,0 5.592,11.813 2.106,17.937c0,0 -2.106,-15.929 -3.937,-16.008c0,0 -7.03,10.554 -7.758,17.721c0.34,-6.681 2.425,-13.158 6.045,-18.784c-4.051,0.766 -7.79,2.704 -10.751,5.572c-2.961,2.868 1.083,-7.462 12.503,-8.112c0,0 5.808,-8.014 7.364,-8.486c0,0 -11.361,-0.965 -18.233,2.087c0,0 6.065,-7.029 20.3,-3.938l7.876,-6.498c0,0 -14.925,-1.969 -21.265,0.217c0,0 7.305,-6.222 23.411,-1.693l8.684,-5.179c0,0 -12.74,-2.737 -20.32,-1.752c0,0 7.994,-4.312 22.859,0.354l6.183,-2.776c0,0 -9.313,-1.831 -12.05,-2.127c-2.737,-0.295 -2.875,-1.043 -2.875,-1.043c5.911,-0.971 11.976,-0.289 17.524,1.969c5.548,2.258 13.291,-4.785 13.035,-5.612Z" style="fill:#9e0031;fill-rule:nonzero;"/><path d="M1951.9,1135.71c0,0 -74.821,-4.509 -66.079,47.984c0,0 -1.752,9.274 6.655,13.488c0,0 0.138,-3.938 7.679,-2.58c2.693,0.452 5.429,0.584 8.152,0.394c3.637,-0.268 7.091,-1.705 9.845,-4.095c2.754,-2.391 21.068,-8.703 29.239,-43.121c0,0 6.065,-7.502 5.907,-9.431l-12.641,5.395c0,0 4.312,9.116 0.926,16.697c0,0 -0.414,-16.363 -2.836,-15.989c-0.492,0 -6.576,3.171 -6.576,3.171c0,0 7.423,15.889 1.831,27.427c0,0 2.127,-19.571 -4.154,-26.285l-8.9,5.198c0,0 8.683,16.401 2.796,29.79c0,0 1.516,-20.536 -4.667,-28.53l-8.053,6.3c0,0 8.152,16.166 3.17,27.271c0,0 -0.65,-23.904 -4.922,-25.715c0,0 -7.049,6.222 -8.132,8.782c0,0 5.592,11.813 2.126,17.937c0,0 -2.126,-15.929 -3.938,-16.008c0,0 -7.029,10.554 -7.757,17.721c0.341,-6.684 2.432,-13.163 6.064,-18.784c-4.056,0.768 -7.8,2.705 -10.77,5.572c-2.97,2.867 1.103,-7.462 12.503,-8.112c0,0 5.808,-8.014 7.364,-8.506c0,0 -11.341,-0.945 -18.233,2.107c0,0 6.065,-7.029 20.3,-3.938l7.876,-6.498c0,0 -14.944,-1.969 -21.265,0.217c0,0 7.285,-6.222 23.411,-1.694l8.664,-5.178c0,0 -12.739,-2.737 -20.32,-1.752c0,0 7.994,-4.312 22.86,0.354l6.202,-2.776c0,0 -9.333,-1.831 -12.07,-2.127c-2.737,-0.295 -2.874,-1.043 -2.874,-1.043c5.91,-0.983 11.979,-0.301 17.523,1.969c5.545,2.27 13.33,-4.785 13.094,-5.612Z" style="fill:#9e0031;fill-opacity:0.1;fill-rule:nonzero;"/><path d="M1025.31,1244.24c0,0 -32.606,-67.595 -74.112,-34.28c0,0 -8.959,2.993 -8.526,12.385c0,0 3.446,-1.792 5.907,5.454c0.919,2.561 2.135,5.006 3.623,7.285c2.014,3.089 4.98,5.439 8.447,6.695c3.467,1.255 17.858,14.137 51.902,4.489c0,0 9.51,1.634 11.066,0.492l-10.869,-8.407c0,0 -5.907,8.21 -14.137,8.939c0,0 14.097,-8.329 12.581,-10.258c-0.315,-0.394 -5.907,-4.194 -5.907,-4.194c0,0 -10.258,14.235 -23.056,14.964c0,0 18.114,-7.679 20.91,-16.441l-8.86,-5.238c0,0 -10.101,15.595 -24.652,16.973c0,0 18.666,-8.683 22.624,-17.977l-9.412,-3.938c0,0 -10.14,15.004 -22.269,16.087c0,0 20.556,-12.228 20.044,-16.855c0,0 -8.88,-3.111 -11.636,-2.815c0,0 -7.522,10.613 -14.61,10.613c0,0 12.857,-9.629 12.07,-11.184c0,0 -12.641,-0.985 -19.296,1.969c5.996,-2.981 12.67,-4.339 19.355,-3.938c-2.652,-3.162 -6.17,-5.482 -10.121,-6.675c-3.951,-1.193 7.049,-2.678 13.173,6.95c0,0 9.844,1.162 11.006,2.284c0,0 -4.706,-10.356 -10.711,-14.865c0,0 9.097,1.831 13.251,15.751l9.55,3.781c0,0 -5.494,-14.019 -10.554,-18.449c0,0 8.978,3.327 12.897,19.689l8.742,5.041c0,0 -3.8,-12.464 -8.368,-18.587c0,0 7.659,4.883 10.829,20.123l5.454,4.056c0,0 -2.953,-9.038 -3.938,-11.558c-0.984,-2.52 -0.492,-3.032 -0.492,-3.032c3.745,4.674 6.118,10.299 6.852,16.244c0.734,5.944 10.534,9.018 11.243,8.427Z" style="fill:#9e0031;fill-opacity:0.1;fill-rule:nonzero;"/><path d="M1780.96,1040.21c0,0 -32.587,-67.595 -74.112,-34.28c0,0 -8.939,2.993 -8.526,12.385c0,0 3.466,-1.772 5.907,5.454c0.918,2.572 2.141,5.025 3.643,7.305c2.007,3.083 4.967,5.427 8.427,6.675c3.46,1.248 17.878,14.137 51.902,4.509c0,0 9.51,1.614 11.085,0.472l-10.809,-8.427c0,0 -5.907,8.23 -14.118,8.959c0,0 14.078,-8.348 12.562,-10.278c-0.315,-0.394 -5.907,-4.194 -5.907,-4.194c0,0 -10.238,14.236 -23.056,14.964c0,0 18.134,-7.679 20.93,-16.421l-8.998,-5.198c0,0 -10.082,15.575 -24.652,16.972c0,0 18.666,-8.702 22.643,-17.996l-9.431,-3.938c0,0 -10.14,15.023 -22.25,16.087c0,0 20.537,-12.228 20.025,-16.835c0,0 -8.861,-3.131 -11.617,-2.816c0,0 -7.522,10.593 -14.63,10.593c0,0 12.878,-9.628 12.09,-11.183c0,0 -12.641,-0.985 -19.316,1.969c5.997,-2.982 12.671,-4.34 19.355,-3.938c-2.641,-3.164 -6.154,-5.486 -10.1,-6.675c-3.947,-1.19 7.048,-2.678 13.172,6.95c0,0 9.845,1.182 11.006,2.304c0,0 -4.705,-10.377 -10.73,-14.885c0,0 9.096,1.85 13.251,15.85l9.569,3.78c0,0 -5.493,-14.039 -10.554,-18.469c0,0 8.979,3.328 12.877,19.69l8.762,5.041c0,0 -3.82,-12.444 -8.388,-18.588c0,0 7.679,4.883 10.83,20.123l5.454,4.056c0,0 -2.934,-9.037 -3.938,-11.557c-1.004,-2.521 -0.492,-3.013 -0.492,-3.013c3.734,4.679 6.1,10.303 6.832,16.244c0.732,5.942 10.692,8.939 11.302,8.309Z" style="fill:#9e0031;fill-opacity:0.1;fill-rule:nonzero;"/><path d="M1885.1,1374.56c0,0 -32.587,-67.614 -74.171,-34.299c0,0 -8.939,2.993 -8.526,12.385c0,0 3.465,-1.773 5.907,5.454c0.911,2.571 2.128,5.023 3.623,7.304c2.007,3.083 4.967,5.428 8.427,6.675c3.46,1.248 17.878,14.157 51.922,4.509c0,0 9.49,1.634 11.065,0.473l-10.868,-8.408c0,0 -5.907,8.231 -14.138,8.959c0,0 14.079,-8.348 12.563,-10.278c-0.315,-0.394 -5.907,-4.194 -5.907,-4.194c0,0 -10.239,14.236 -23.057,14.984c0,0 18.134,-7.699 20.93,-16.441l-8.88,-5.237c0,0 -10.081,15.594 -24.651,16.972c0,0 18.665,-8.703 22.643,-17.996l-9.432,-3.938c0,0 -10.14,15.003 -22.249,16.086c0,0 20.556,-12.227 20.044,-16.854c0,0 -8.88,-3.131 -11.637,-2.816c0,0 -7.521,10.593 -14.629,10.593c0,0 12.877,-9.628 12.089,-11.183c0,0 -12.64,-0.985 -19.315,1.969c6.004,-2.98 12.684,-4.338 19.375,-3.938c-2.646,-3.169 -6.166,-5.491 -10.121,-6.675c-3.955,-1.184 7.049,-2.698 13.172,6.95c0,0 9.845,1.162 11.007,2.284c0,0 -4.706,-10.356 -10.711,-14.885c0,0 9.096,1.851 13.251,15.85l9.55,3.781c0,0 -5.494,-14.039 -10.554,-18.45c0,0 8.978,3.308 12.877,19.69l8.762,5.021c0,0 -3.82,-12.444 -8.388,-18.587c0,0 7.679,4.883 10.849,20.142l5.454,3.938c0,0 -2.953,-9.037 -3.938,-11.558c-0.984,-2.52 -0.492,-3.012 -0.492,-3.012c3.744,4.673 6.11,10.3 6.832,16.244c0.722,5.944 10.711,9.077 11.322,8.486Z" style="fill:#9e0031;fill-opacity:0.1;fill-rule:nonzero;"/><ellipse cx="685.716" cy="2249.18" rx="45.267" ry="5.06" style="fill:#9e0031;fill-opacity:0.1;"/><ellipse cx="388.973" cy="2163.18" rx="45.267" ry="5.06" style="fill:#9e0031;fill-opacity:0.1;"/><ellipse cx="911.912" cy="2306.3" rx="45.267" ry="5.06" style="fill:#9e0031;fill-opacity:0.1;"/><ellipse cx="2071.05" cy="2181.88" rx="45.267" ry="5.06" style="fill:#9e0031;fill-opacity:0.1;"/><ellipse cx="1694.36" cy="2157.33" rx="45.267" ry="5.06" style="fill:#9e0031;fill-opacity:0.1;"/><ellipse cx="1450.68" cy="2272.95" rx="53.536" ry="9.195" style="fill:#9e0031;fill-opacity:0.1;"/><path d="M1474.57,2180.52c0,0 -74.545,38.514 -36.032,83.879c0,0 3.623,9.844 14.098,9.155c0,0 -2.087,-3.819 5.907,-6.871c2.844,-1.1 5.548,-2.534 8.053,-4.273c3.385,-2.34 5.915,-5.721 7.206,-9.628c1.291,-3.907 15.24,-20.399 3.426,-58.144c0,0 1.536,-10.672 0.197,-12.405l-9.057,12.425c0,0 9.353,6.281 10.435,15.515c0,0 -9.844,-15.496 -11.813,-13.783c-0.434,0.355 -4.49,6.793 -4.49,6.793c0,0 16.225,11.007 17.426,25.302c0,0 -9.136,-20.025 -19.001,-22.88l-5.651,10.081c0,0 17.721,10.79 19.69,27.015c0,0 -10.298,-20.576 -20.812,-24.731l-4.155,10.652c0,0 17.091,10.869 18.666,24.376c0,0 -14.294,-22.584 -19.433,-21.875c0,0 -3.23,10.002 -2.796,13.094c0,0 12.069,8.072 12.286,16.007c0,0 -11.144,-14.078 -12.857,-13.152c0,0 -0.709,14.157 2.717,21.521c0,0 -5.907,-10.515 -4.942,-21.521c-3.453,3.053 -5.938,7.051 -7.148,11.498c-1.209,4.448 -3.209,-7.777 7.364,-14.944c0,0 1.004,-11.007 2.225,-12.365c0,0 -11.44,5.592 -16.303,12.444c0,0 1.792,-10.219 17.307,-15.299l3.938,-10.79c0,0 -15.515,6.576 -20.3,12.365c0,0 3.446,-10.14 21.521,-15.004l5.356,-9.844c0,0 -13.783,4.646 -20.517,9.844c0,0 5.218,-8.722 22.171,-12.739l4.351,-6.202c0,0 -10.002,3.564 -12.798,4.844c-2.796,1.279 -3.348,0.649 -3.348,0.649c5.111,-4.322 11.321,-7.144 17.938,-8.151c6.617,-1.007 9.864,-12.188 9.175,-12.858Z" style="fill:#9e0031;fill-rule:nonzero;"/><path d="M1695.82,1453.13c-12.878,-34.988 -83.76,-38.277 -114.516,-29.357c-21.855,6.36 -67.929,13.527 -92.542,17.13l-1.594,-1.516c3.189,-0.945 3.268,-3.269 2.874,-6.714c-0.229,-4.542 -0.163,-9.093 0.197,-13.626c15.083,4.686 28.511,-6.399 28.511,-6.399c17.721,-7.876 12.956,-41.585 16.342,-50.799c2.54,-6.892 5.277,-47.492 6.498,-67.733l0.256,0l0.138,-6.793c0.177,-2.934 0.256,-4.647 0.256,-4.647c0,0 1.732,-49.5 5.119,-59.522c3.15,-9.215 5.71,-55.643 6.104,-63.007l0,-0.965l-0.256,-4.292c0.177,-3.131 0.256,-6.616 0.236,-10.278c0,-16.835 -1.752,-38.041 -1.969,-41.467l0,-1.791c0.138,-7.187 -0.768,-43.18 -31.385,-56.785c-11.282,-5.041 -24.849,-11.046 -37.982,-16.894c-3.386,-29.239 -11.124,-58.321 -10.455,-87.777c0,-4.43 0.394,-8.86 0.827,-13.271c0,1.28 -0.138,2.579 -0.157,3.938l0,8.585c1.161,-36.84 15.082,-73.876 13.782,-109.928c-0.118,3.525 -0.374,7.069 -0.708,10.613c0.679,-12.194 -0.597,-24.419 -3.781,-36.21c-1.181,-4.154 -2.776,-8.446 -6.182,-11.223c-3.22,-2.236 -6.913,-3.698 -10.79,-4.272c-9.318,-2.385 -18.783,-4.148 -28.334,-5.277c-1.451,-4.443 -3.605,-8.624 -6.379,-12.385c-19.966,-27.408 -49.54,-53.162 -84.509,-59.069c-17.543,-2.954 -37.725,-0.492 -49.657,12.05c-1.246,1.102 -2.417,2.286 -3.505,3.544c-6.419,7.659 -9.175,17.721 -15.752,25.36c-0.433,0.512 -0.925,0.985 -1.398,1.477c-12.877,11.519 -32.941,13.921 -47.255,24.258c-2.522,1.856 -4.887,3.917 -7.069,6.163c-5.767,5.716 -10.94,12.003 -15.436,18.764c-6.439,9.057 -13.055,18.489 -15.102,29.298c-4.115,21.659 10.632,42.195 13.369,63.992c6.104,48.771 -47.866,92.049 -37.647,140.171c2.727,11.821 8.749,22.63 17.367,31.169c-21.049,19.06 -38.966,37.548 -38.966,37.548l0,1.103l-3.328,0l0.335,3.938l-0.335,0l1.831,21.363l-1.831,31.11l0,2.934l0.118,0c0.611,11.4 3.032,52.394 5.907,61.038c3.387,10.022 5.1,59.522 5.1,59.522c0,0 3.741,69.957 7.167,79.211c3.426,9.255 -1.438,42.865 16.342,50.8c5.201,3.989 11.361,6.543 17.859,7.403c-0.906,7.364 -0.335,12.7 2.599,14.374c1.256,0.738 2.679,1.145 4.135,1.181c-1.207,1.789 -2.279,3.665 -3.21,5.612c-7.057,-0.737 -13.991,-2.371 -20.635,-4.864c-19.099,-7.876 -82.48,-25.596 -100.89,-13.133c-18.41,12.464 -62.711,23.766 -42.254,73.935c20.458,50.17 29.988,51.43 29.988,51.43c6.297,4.571 11.821,10.122 16.362,16.441c6.143,9.234 63.381,30.361 77.695,30.361c6.085,-0.094 12.169,0.209 18.213,0.906c6.045,0.697 -15.535,13.625 -13.467,21.541c2.067,7.915 -4.726,71.276 -4.726,71.276c0,0 15.752,15.87 22.486,-4.942l0.236,0.315c1.26,1.713 8.073,9.451 20.891,-0.315c5.246,-3.98 10.818,-7.51 16.657,-10.554l62.062,-8.781c6.471,-0.405 12.959,-0.451 19.434,-0.138c9.845,0.807 19.513,-5.021 25.597,-9.53c12.857,4.883 27.309,10.219 34.181,12.168c13.94,3.938 78.011,21.128 92.995,15.752c3.114,-1.238 5.884,-3.211 8.072,-5.749l14.295,0.453l-6.694,1.339c0,0 13.034,0.216 30.755,0.452l-0.748,0.434l22.229,-0.197c32.528,0.295 69.072,0.394 73.876,-0.689c7.522,-1.674 46.606,-0.493 58.124,0l3.21,0c0,0 42.943,-8.565 25.222,-52.139c-13.625,-33.472 -55.505,-43.199 -74.092,-45.877c5.237,-1.043 9.746,-1.851 12.739,-2.323c12.976,-1.969 38.179,-13.783 40.226,-17.819c2.048,-4.037 23.175,-15.752 28.629,-22.427c5.454,-6.675 21.029,-53.989 8.093,-88.978Zm-355.695,97.917l-2.107,0.689l-1.418,0.473l-2.717,2.678c-2.166,-1.457 -4.489,-2.993 -6.911,-4.568c4.273,0.256 8.664,0.512 13.153,0.728Z" style="fill:url(#_Linear2);fill-rule:nonzero;"/><path d="M1465.66,1343.43c0,0 30.126,78.759 47.256,70.883c17.13,-7.876 12.483,-41.349 15.752,-50.524c3.268,-9.175 6.891,-78.759 6.891,-78.759c0,0 1.654,-49.224 4.922,-59.187c3.033,-9.156 5.494,-55.328 5.907,-62.594l0,-0.965l-3.249,-57.1l-18.39,-4.588l-42.648,15.752l-5.907,33.729l-2.303,13.172l-0.985,5.612l-7.246,174.569Z" style="fill:#be6f72;fill-rule:nonzero;"/><path d="M1475.59,1330.24c0,0 28.747,23.529 37.411,25.596c8.663,2.068 13.979,20.419 13.979,20.419" style="fill-opacity:0.1;fill-rule:nonzero;"/><path d="M1230.08,1346.88c0,0 -30.125,78.759 -47.255,70.883c-17.13,-7.875 -12.484,-41.348 -15.752,-50.523c-3.269,-9.176 -6.892,-78.759 -6.892,-78.759c0,0 -1.653,-49.225 -4.922,-59.188c-3.032,-9.155 -5.493,-55.328 -5.907,-62.593l0,-0.965l3.269,-57.1l18.39,-4.588l42.648,15.752l5.907,33.728l2.303,13.173l0.985,5.611l7.226,174.569Z" style="fill:#be6f72;fill-rule:nonzero;"/><rect x="1359.01" y="925.402" width="67.24" height="104.808" style="fill:#3e373a;"/><rect x="1359.01" y="925.402" width="67.24" height="104.808" style="fill-opacity:0.1;"/><path d="M1218.26,1425.32c0,0 -22.978,25.262 -14.452,29.85c8.526,4.588 63.676,90.573 63.676,90.573c0,0 181.146,22.308 215.308,-11.164c34.161,-33.473 33.472,-93.271 33.472,-93.271c0,0 -27.447,5.907 -30.44,2.698c-2.993,-3.21 -19.434,-18.686 -19.434,-18.686c0,0 -232.378,-14.098 -248.13,0Z" style="fill:#4b4b5b;fill-rule:nonzero;"/><path d="M1218.26,1425.32c0,0 -22.978,25.262 -14.452,29.85c8.526,4.588 63.676,90.573 63.676,90.573c0,0 181.146,22.308 215.308,-11.164c34.161,-33.473 33.472,-93.271 33.472,-93.271c0,0 -27.447,5.907 -30.44,2.698c-2.993,-3.21 -19.434,-18.686 -19.434,-18.686c0,0 -232.378,-14.098 -248.13,0Z" style="fill-opacity:0.02;fill-rule:nonzero;"/><path d="M1544.37,1106.02l-59.069,47.255l-17.858,1.3l-6.557,0.473l-110.125,8.072l-114.2,-8.348l-16.992,-1.241l-21.659,-1.575l-45.286,-43.317c0,0 32.054,-34.339 60.132,-57.514c11.066,-9.156 21.521,-16.559 29.141,-19.473l1.299,-0.453c4.793,-1.869 9.072,-4.852 12.484,-8.703c22.17,-22.859 42.667,-79.27 42.667,-79.27c0,0 97.799,-50.524 85.985,15.751c-11.814,66.276 43.967,49.894 43.967,49.894l18.391,8.388l7.265,3.327l18.528,8.487l41.801,19.177c32.803,15.103 30.086,57.77 30.086,57.77Z" style="fill:#be6f72;fill-rule:nonzero;"/><circle cx="1346.17" cy="909.237" r="87.954" style="fill-opacity:0.1;"/><path d="M1544.5,1168.67l-395.153,0l0,-0.965l3.269,-57.1c0,0 32.054,-34.339 60.132,-57.514l248.09,-9.845l11.539,-12.168l41.801,19.178c32.823,15.082 30.184,57.75 30.184,57.75c0,0 4.49,49.441 0.138,60.664Z" style="fill-opacity:0.1;fill-rule:nonzero;"/><path d="M1544.5,1166.7l-395.153,0l0,-0.965l3.269,-57.1c0,0 32.054,-34.339 60.132,-57.514l248.09,-9.845l11.539,-12.168l41.801,19.178c32.823,15.082 30.184,57.75 30.184,57.75c0,0 4.49,49.441 0.138,60.664Z" style="fill:#e7c7ca;fill-rule:nonzero;"/><path d="M1282.83,1006.58c0,0 62.337,79.428 145.369,-1.634c83.031,-81.063 9.195,180.81 9.195,180.81l-179.176,21.265l24.612,-200.441Z" style="fill-opacity:0.1;fill-rule:nonzero;"/><path d="M1282.83,1010.52c0,0 62.337,79.428 145.369,-1.634c83.031,-81.063 9.195,180.81 9.195,180.81l-179.176,21.265l24.612,-200.441Z" style="fill:#e7c7ca;fill-rule:nonzero;"/><path d="M1453.85,1024.46l6.596,100.595l7.068,33.473l5.395,25.596c0,0 13.783,196.897 9.845,206.742c-3.938,9.845 1.969,17.721 2.796,22.958c0.827,5.238 -0.827,18.391 -0.177,24.298c0.65,5.907 0,8.525 -15.082,6.418c-15.083,-2.106 -36.111,-5.769 -36.111,-5.769c0,0 -53.163,3.938 -71.533,-2.618c-18.371,-6.557 -53.162,-6.577 -53.162,-6.577c0,0 -52.513,1.319 -69.564,-0.649c-17.051,-1.969 -26.266,21.008 -37.411,14.432c-11.144,-6.576 13.114,-70.213 20.99,-88.604c7.875,-18.39 -10.495,-64.976 -10.495,-64.976l23.628,-131.074l5.257,-29.712l0,-93.408l1.299,-0.453c4.793,-1.869 9.072,-4.852 12.484,-8.703l5.907,93.999l185.083,6.576l0,-105.792" style="fill-opacity:0.1;fill-rule:nonzero;"/><path d="M1453.85,1020.52l6.596,100.595l7.068,33.473l5.395,25.596c0,0 13.783,196.897 9.845,206.742c-3.938,9.845 1.969,17.721 2.796,22.959c0.827,5.237 -0.827,18.39 -0.177,24.297c0.65,5.907 0,8.525 -15.082,6.419c-15.083,-2.107 -36.111,-5.77 -36.111,-5.77c0,0 -53.163,3.938 -71.533,-2.618c-18.371,-6.557 -53.162,-6.577 -53.162,-6.577c0,0 -52.513,1.32 -69.564,-0.649c-17.051,-1.969 -26.266,21.008 -37.411,14.432c-11.144,-6.576 13.114,-70.213 20.99,-88.604c7.875,-18.39 -10.495,-64.976 -10.495,-64.976l23.628,-131.074l5.257,-29.712l0,-93.408l1.299,-0.453c4.793,-1.869 9.072,-4.852 12.484,-8.703l5.907,93.999l185.083,6.576l0,-105.792" style="fill:#e7c7ca;fill-rule:nonzero;"/><path d="M1475.14,810.592c-1.122,-4.116 -2.678,-8.388 -5.907,-11.145c-3.083,-2.214 -6.645,-3.671 -10.396,-4.253c-8.981,-2.361 -18.112,-4.111 -27.329,-5.237c-1.317,-4.372 -3.31,-8.511 -5.907,-12.267c-19.296,-27.25 -47.846,-52.946 -81.437,-58.754c-17.583,-3.052 -37.962,-0.315 -49.224,13.546c-6.183,7.62 -8.841,17.721 -15.082,25.203c-12.031,14.531 -33.749,16.323 -48.91,27.566c-8.092,5.907 -13.96,14.472 -19.689,22.781c-6.203,8.998 -12.582,18.37 -14.551,29.121c-3.938,21.482 10.258,41.959 12.877,63.637c5.907,48.496 -46.074,91.518 -36.249,139.364c5.73,27.9 31.504,47.551 58.164,57.514c9.392,3.524 20.123,7.029 24.513,16.047c1.969,3.938 2.304,8.486 4.155,12.463c6.222,13.271 26.679,13.783 37.666,4.116c10.987,-9.668 14.453,-25.302 15.752,-39.892c5.277,-63.716 -20.241,-126.664 -17.268,-190.537c0.886,-19.316 6.321,-41.23 23.628,-49.973c23.293,-11.814 51.311,7.876 76.947,4.115c12.13,29.514 14.706,62.1 7.364,93.152c-4.076,16.993 -11.124,33.473 -11.636,50.997c-0.768,26.679 13.625,51.055 26.069,74.644c2.67,4.41 4.456,9.299 5.257,14.393c0.196,5.168 -0.766,10.314 -2.816,15.062c-7.029,18.922 -19.158,36.485 -20.536,56.628c-0.404,2.35 0.126,4.768 1.477,6.734c1.387,1.312 3.178,2.117 5.08,2.284c21.264,3.643 39.655,-15.201 50.031,-34.122c11.569,-20.899 18.31,-44.125 19.729,-67.969c2.146,-40.089 -12.227,-79.527 -11.341,-119.655c1.024,-45.621 21.639,-91.557 9.569,-135.563Z" style="fill-opacity:0.1;fill-rule:nonzero;"/><path d="M1477.11,808.623c-1.122,-4.116 -2.678,-8.388 -5.907,-11.145c-3.083,-2.214 -6.645,-3.671 -10.396,-4.253c-8.981,-2.361 -18.112,-4.111 -27.329,-5.237c-1.317,-4.372 -3.31,-8.511 -5.907,-12.267c-19.296,-27.25 -47.846,-52.946 -81.437,-58.754c-17.583,-3.052 -37.962,-0.315 -49.224,13.547c-6.183,7.619 -8.841,17.72 -15.082,25.202c-12.031,14.531 -33.749,16.323 -48.91,27.566c-8.092,5.907 -13.96,14.472 -19.689,22.781c-6.203,8.998 -12.582,18.37 -14.551,29.121c-3.938,21.482 10.258,41.959 12.877,63.637c5.907,48.496 -46.074,91.518 -36.249,139.364c5.73,27.9 31.504,47.551 58.164,57.514c9.392,3.524 20.122,7.029 24.513,16.047c1.969,3.938 2.304,8.486 4.155,12.463c6.222,13.271 26.679,13.783 37.666,4.116c10.987,-9.668 14.453,-25.302 15.752,-39.892c5.277,-63.716 -20.241,-126.664 -17.268,-190.537c0.886,-19.316 6.321,-41.23 23.628,-49.973c23.293,-11.814 51.311,7.876 76.947,4.115c12.13,29.514 14.706,62.1 7.364,93.153c-4.076,16.992 -11.125,33.472 -11.636,50.996c-0.768,26.679 13.625,51.055 26.069,74.644c2.67,4.41 4.456,9.299 5.257,14.393c0.196,5.168 -0.766,10.314 -2.816,15.062c-7.029,18.922 -19.158,36.485 -20.536,56.628c-0.404,2.351 0.126,4.768 1.477,6.734c1.387,1.312 3.178,2.117 5.08,2.284c21.264,3.643 39.655,-15.201 50.031,-34.122c11.569,-20.899 18.31,-44.125 19.729,-67.969c2.146,-40.089 -12.227,-79.527 -11.341,-119.655c1.024,-45.621 21.639,-91.557 9.569,-135.563Z" style="fill:#3e373a;fill-rule:nonzero;"/><path d="M1433.61,1680.42l78.109,2.501l-11.204,-57.927l-59.837,5.69l-7.068,49.736Z" style="fill:#c3c7d9;fill-rule:nonzero;"/><path d="M1675.64,1543.13c-5.258,6.557 -25.597,18.37 -27.566,22.308c-1.969,3.938 -26.246,15.752 -38.73,17.721c-12.483,1.969 -51.843,10.514 -59.069,15.102c-5.178,3.308 -46.743,13.783 -74.053,19.591c-7.397,1.75 -14.883,3.098 -22.426,4.037c-11.814,0.65 -141.097,-43.318 -141.097,-43.318l24.927,-25.596l1.378,-0.473c7.049,-2.382 39.616,-13.389 57.691,-18.626c20.36,-5.907 43.987,-30.185 43.987,-30.185c0,0 34.772,-11.813 39.38,-13.133c4.607,-1.319 -11.814,-45.936 -11.814,-45.936c0,0 75.47,-10.475 105.005,-19.355c29.535,-8.88 97.799,-5.592 110.262,29.2c12.464,34.792 -2.539,82.106 -7.875,88.663Z" style="fill:#4b4b5b;fill-rule:nonzero;"/><path d="M1331.72,1654.04c0,0 -15.082,15.752 -30.184,14.452c-15.102,-1.299 -67.91,3.938 -67.91,3.938c-9.57,3.818 -18.531,9.011 -26.601,15.417c-12.345,9.727 -18.902,1.969 -20.123,0.315l-0.216,-0.315c-6.577,20.694 -21.659,4.923 -21.659,4.923c0,0 6.557,-63.007 4.548,-70.883c-2.008,-7.876 12.976,-21.403 12.976,-21.403l17.721,-4.509l44.892,-11.499l64.327,22.309l22.229,47.255Z" style="fill:#e7c7ca;fill-rule:nonzero;"/><path d="M1200.19,1595.98l-13.291,92.187l-0.216,-0.315c-6.577,20.694 -21.659,4.923 -21.659,4.923c0,0 6.557,-63.007 4.548,-70.883c-2.008,-7.876 12.976,-21.403 12.976,-21.403l17.642,-4.509Z" style="fill-opacity:0.1;fill-rule:nonzero;"/><path d="M1293.09,1333.75c0,0 34.772,11.814 64.976,0" style="fill-opacity:0.1;fill-rule:nonzero;"/><path d="M1411.79,1356.08c0,0 14.433,7.206 25.597,0" style="fill-opacity:0.1;fill-rule:nonzero;"/><path d="M1411.79,1373.17c0,0 24.278,3.249 28.885,-3.308" style="fill-opacity:0.1;fill-rule:nonzero;"/><path d="M1403.92,1409.89c0,0 45.602,-5.907 56.923,-13.783" style="fill-opacity:0.1;fill-rule:nonzero;"/><path d="M1264.77,1396.11c0,0 25.597,14.432 44.637,13.783" style="fill-opacity:0.1;fill-rule:nonzero;"/><path d="M1476.2,1617.85c-7.397,1.75 -14.883,3.098 -22.426,4.037c-11.814,0.65 -141.097,-43.318 -141.097,-43.318l24.928,-25.596l1.378,-0.473c3.938,2.776 7.167,5.159 9.471,6.97c10.849,8.546 21.324,-2.618 25.261,-2.618c3.938,0 38.061,28.215 38.061,28.215c0,0 31.503,7.226 36.76,13.783c5.258,6.556 23.628,5.257 26.897,9.845c0.984,1.417 1.102,4.902 0.767,9.155Z" style="fill-opacity:0.1;fill-rule:nonzero;"/><path d="M1233.62,1447.3c0,0 -31.858,1.831 -50.228,-5.907c-18.371,-7.738 -79.409,-25.597 -97.13,-13.054c-17.72,12.542 -60.388,23.627 -40.698,73.521c19.689,49.894 28.884,51.193 28.884,51.193c6.092,4.569 11.411,10.087 15.752,16.343c5.907,9.195 61.038,30.184 74.821,30.184c13.783,0 38.06,0 72.183,23.628c34.122,23.628 64.976,26.266 64.976,26.266c0,0 43.317,17.721 56.805,21.659c13.487,3.938 75.116,20.989 89.568,15.752c14.452,-5.238 23.628,-38.08 23.628,-38.08c0,0 6.556,-29.535 3.268,-34.123c-3.288,-4.587 -21.658,-3.288 -26.896,-9.845c-5.237,-6.556 -36.761,-13.782 -36.761,-13.782c0,0 -34.043,-28.235 -37.981,-28.235c-3.938,0 -14.413,11.144 -25.262,2.618c-21.611,-16.007 -44.317,-30.481 -67.949,-43.317c-24.927,-13.133 -46.98,-74.821 -46.98,-74.821Z" style="fill:#4b4b5b;fill-rule:nonzero;"/><path d="M1169.57,1466.34c11.49,-2.347 23.441,0.81 32.272,8.526c15.752,13.133 68.756,39.497 68.756,39.497" style="fill-opacity:0.1;fill-rule:nonzero;"/><path d="M1563.4,1465.51c0,0 -70.233,10.632 -83.346,25.065" style="fill-opacity:0.1;fill-rule:nonzero;"/><path d="M1644.13,1682.92l-3.091,0c-11.105,-0.394 -48.732,-1.575 -55.978,0c-8.526,1.969 -121.427,0 -121.427,0l22.073,-4.588c0,0 -8.191,-28.707 -2.993,-31.09c0,0 -29.535,-19.453 -7.266,-32.586c22.269,-13.133 46.271,-7.601 46.271,-7.601l55.899,-18.941l10.731,-3.643c0,0 63.007,3.288 80.058,46.606c17.052,43.317 -24.277,51.843 -24.277,51.843Z" style="fill:#e7c7ca;fill-rule:nonzero;"/><path d="M1644.13,1682.92l-3.091,0c18.331,-15.122 59.797,-61.156 -63.421,-94.708l10.731,-3.642c0,0 63.007,3.288 80.058,46.605c17.052,43.318 -24.277,51.745 -24.277,51.745Z" style="fill-opacity:0.1;fill-rule:nonzero;"/><circle cx="1528.3" cy="1628.44" r="3.446" style="fill:#4b4b5b;"/><circle cx="1508.27" cy="1634.13" r="3.446" style="fill:#4b4b5b;"/><g opacity="0.1"><path d="M1410.71,905.988c0.764,-21.656 -3.089,-43.229 -11.301,-63.282c-25.597,3.819 -53.635,-15.929 -76.948,-4.116c-17.248,8.743 -22.663,30.657 -23.628,49.973c-0.236,5.1 -0.275,10.199 -0.177,15.299c0,-1.812 0,-3.643 0.177,-5.454c0.906,-19.316 6.321,-41.231 23.628,-49.973c23.313,-11.814 51.312,7.876 76.948,4.115c6.955,16.987 10.784,35.091 11.301,53.438Z" style="fill-rule:nonzero;"/><path d="M1212.36,902.385c0.337,-4.29 0.252,-8.603 -0.256,-12.877c-2.087,-17.327 -11.558,-33.886 -13.271,-50.78c-2.205,20.379 10.771,39.951 13.271,60.625c0.256,1.063 0.256,2.008 0.256,3.032Z" style="fill-rule:nonzero;"/><path d="M1316.1,1079.08c-1.22,14.609 -4.666,30.223 -15.751,39.911c-11.086,9.687 -31.504,9.155 -37.667,-4.115c-1.969,-3.938 -2.264,-8.526 -4.174,-12.464c-4.371,-9.018 -15.122,-12.523 -24.514,-16.047c-26.679,-9.983 -52.414,-29.535 -58.144,-57.514c-0.511,-2.535 -0.86,-5.1 -1.043,-7.679c-0.484,5.861 -0.133,11.762 1.043,17.524c5.73,27.9 31.504,47.531 58.144,57.514c9.392,3.524 20.143,7.029 24.514,16.047c1.969,3.938 2.304,8.486 4.174,12.463c6.202,13.271 26.66,13.783 37.667,4.116c11.006,-9.668 14.432,-25.302 15.751,-39.912c0.6,-7.689 0.804,-15.405 0.611,-23.115c0,4.469 -0.256,8.88 -0.611,13.271Z" style="fill-rule:nonzero;"/><path d="M1468.19,934.853l0,8.526c1.102,-36.623 14.531,-73.443 13.212,-109.298c-1.024,33.158 -12.464,67.064 -13.212,100.772Z" style="fill-rule:nonzero;"/><path d="M1425.93,1083c0.484,-2.336 0.636,-4.729 0.452,-7.108c-0.793,-5.096 -2.579,-9.986 -5.257,-14.393c-11.38,-21.659 -24.356,-43.83 -25.892,-67.871c0,1.024 -0.138,1.969 -0.157,3.072c-0.788,26.66 13.605,51.055 26.049,74.644c2.115,3.653 3.731,7.573 4.805,11.656Z" style="fill-rule:nonzero;"/><path d="M1479.51,1054.51c-1.469,23.853 -8.258,47.079 -19.867,67.969c-10.396,18.922 -28.766,37.765 -50.051,34.122c-1.906,-0.164 -3.7,-0.978 -5.08,-2.304c-0.4,-0.451 -0.713,-0.971 -0.925,-1.535c-0.237,1.535 -0.433,3.091 -0.552,4.666c-0.407,2.344 0.124,4.757 1.477,6.714c1.38,1.326 3.174,2.14 5.08,2.304c21.285,3.642 39.655,-15.201 50.051,-34.122c11.609,-20.891 18.398,-44.116 19.867,-67.969c0.237,-4.608 0.256,-9.195 0.118,-13.783c-0.039,1.319 -0.039,2.619 -0.118,3.938Z" style="fill-rule:nonzero;"/></g><path d="M1482.72,1647.25c0,0 49.834,20.911 82.697,-25.36" style="fill:none;fill-rule:nonzero;stroke:#000;stroke-opacity:0.1;stroke-width:1.97px;"/><path d="M1492.52,1683.79c0,0 40.699,-26.463 92.542,-0.866" style="fill:none;fill-rule:nonzero;stroke:#000;stroke-opacity:0.1;stroke-width:1.97px;"/><path d="M1220.1,1677.79c0,0 17.091,-38.553 62.732,-9.156" style="fill:none;fill-rule:nonzero;stroke:#000;stroke-opacity:0.1;stroke-width:1.97px;"/><path d="M1164.69,1107.65l34.851,-31.503c0,0 135.131,-8.861 140.723,37.076c0,0 47.905,-54.462 148.657,-42.333l42.628,33.945l-117.823,51.705l-114.496,39.714l-84.331,-37.745l-50.209,-50.859Z" style="fill-opacity:0.1;fill-rule:nonzero;"/><path d="M1164.69,1109.62l34.851,-31.503c0,0 135.131,-8.861 140.723,37.076c0,0 47.905,-54.462 148.657,-42.333l42.628,33.945l-117.823,51.705l-114.496,39.714l-84.331,-37.745l-50.209,-50.859Z" style="fill:#d5d6db;fill-rule:nonzero;"/><path d="M1149.27,1113.56l15.417,184.434l163.425,8.21l-7.088,-183.646l-0.138,-3.091l-171.616,-5.907Z" style="fill-opacity:0.1;fill-rule:nonzero;"/><path d="M1149.27,1109.62l15.417,184.434l163.425,8.211l-7.088,-183.646l-0.138,-3.092l-171.616,-5.907Z" style="fill:#9e0031;fill-rule:nonzero;"/><path d="M1539.03,1109.62l-168.583,25.282l0,185.261l164.744,-23.805l3.839,-186.738Z" style="fill-opacity:0.1;fill-rule:nonzero;"/><path d="M1539.03,1105.68l-168.583,25.282l0,185.261l164.744,-23.805l3.839,-186.738Z" style="fill:#9e0031;fill-rule:nonzero;"/><path d="M1499.28,1150.89l-91.065,10.121l1.989,31.031l89.017,-9.727l0.059,-31.425Z" style="fill:#fff;fill-opacity:0.3;fill-rule:nonzero;"/><path d="M1173.55,1392.82l9.274,24.946c0,0 13.782,11.814 28.865,5.907c15.082,-5.907 28.235,-8.84 34.792,-14.59c6.556,-5.749 15.751,-34.634 15.751,-34.634c0,0 9.195,-31.503 18.371,-39.379c9.175,-7.876 33.472,-116.386 0,-105.774c-33.473,10.613 -59.069,109.062 -59.069,109.062c0,0 -5.907,7.206 -14.433,7.876c-8.526,0.669 -25.597,-1.32 -28.885,5.907c-3.288,7.226 -14.511,26.246 -4.666,40.679Z" style="fill:#be6f72;fill-rule:nonzero;"/><path d="M1370.45,1134.88c-17.489,3.941 -35.849,-0.636 -49.441,-12.326l7.108,183.627c0,0 16.736,18.114 42.333,13.98l0,-185.281Z" style="fill-opacity:0.1;fill-rule:nonzero;"/><path d="M1370.45,1130.94c-17.489,3.941 -35.849,-0.636 -49.441,-12.325l7.108,183.626c0,0 16.736,18.114 42.333,13.98l0,-185.281Z" style="fill:#9e0031;fill-rule:nonzero;"/><path d="M1370.45,1130.94c-17.489,3.941 -35.849,-0.636 -49.441,-12.325l7.108,183.626c0,0 16.736,18.114 42.333,13.98l0,-185.281Z" style="fill-opacity:0.1;fill-rule:nonzero;"/><path d="M1374.38,1110.25c0,0 68.579,-20.969 86.457,-18.016" style="fill-opacity:0.1;fill-rule:nonzero;"/><path d="M1297.67,1101.09c0,0 -66.473,-15.752 -77.578,-11.283" style="fill-opacity:0.1;fill-rule:nonzero;"/><path d="M1417.62,1112.87c0,0 45.857,-16.815 62.436,-8.821" style="fill-opacity:0.1;fill-rule:nonzero;"/><path d="M1394.53,1534.68c7.107,-5.337 14.671,-10.035 22.604,-14.039c11.814,-5.69 33.473,-20.457 33.473,-20.457" style="fill-opacity:0.1;fill-rule:nonzero;"/><path d="M1220.1,1333.75c0,0 -28.766,23.53 -37.41,25.597c-8.644,2.067 -13.98,20.418 -13.98,20.418" style="fill-opacity:0.1;fill-rule:nonzero;"/><path d="M1522.12,1389.31l-9.176,25.006c0,0 -13.782,11.814 -28.884,5.907c-15.102,-5.907 -28.216,-8.841 -34.792,-14.59c-6.576,-5.75 -15.752,-34.635 -15.752,-34.635c0,0 -9.175,-31.503 -18.37,-39.379c-9.195,-7.876 -33.473,-116.386 0,-105.773c33.472,10.613 59.069,109.061 59.069,109.061c0,0 5.907,7.207 14.432,7.876c8.526,0.669 25.597,-1.319 28.885,5.907c3.288,7.226 14.433,26.246 4.588,40.62Z" style="fill:#be6f72;fill-rule:nonzero;"/><path d="M1506.03,1343.32c0,0 18.804,12.089 18.725,26.541" style="fill-opacity:0.1;fill-rule:nonzero;"/><circle cx="1346.48" cy="904.925" r="87.954" style="fill:#be6f72;"/><path d="M1291.25,881.317c10.672,-1.674 20.024,-7.876 30.224,-11.44c22.82,-8.013 48.062,-2.52 71.158,4.706c8.861,2.776 17.859,5.907 27.152,5.907c9.294,0 19.158,-3.8 23.904,-11.814c4.371,-7.364 3.524,-16.933 -0.158,-24.671c-3.682,-7.738 -9.845,-13.96 -16.067,-19.827c-20.477,-19.336 -45.877,-37.411 -73.974,-35.442c-11.302,0.807 -22.111,4.844 -32.508,9.313c-13.09,5.641 -25.832,12.058 -38.158,19.217c-9.471,5.494 -27.015,12.838 -32.469,22.88c-12.404,22.623 21.6,44.203 40.896,41.171Z" style="fill:#3e373a;fill-rule:nonzero;"/><path d="M1443.69,860.407c-4.746,8.013 -14.61,11.813 -23.904,11.813c-9.293,0 -18.291,-3.012 -27.171,-5.788c-23.096,-7.226 -48.319,-12.74 -71.159,-4.706c-10.18,3.564 -19.552,9.845 -30.224,11.42c-15.555,2.441 -40.6,-11.105 -43.317,-28.334c-3.052,19.907 25.99,36.958 43.317,34.241c10.672,-1.674 20.044,-7.876 30.224,-11.42c22.84,-8.034 48.063,-2.521 71.159,4.706c8.88,2.776 17.858,5.906 27.171,5.788c9.314,-0.118 19.158,-3.78 23.904,-11.813c2.459,-4.37 3.427,-9.425 2.756,-14.394c-0.307,2.992 -1.247,5.885 -2.756,8.487Z" style="fill-opacity:0.1;fill-rule:nonzero;"/><path d="M2157.46,1927.49c0,0 11.676,15.259 -5.395,38.316c-17.071,23.057 -31.13,42.51 -25.459,56.884c0,0 25.754,-42.806 46.704,-43.416c20.95,-0.611 7.167,-26.05 -15.85,-51.784Z" style="fill:#9e0031;fill-rule:nonzero;"/><path d="M2157.46,1927.49c1.016,1.474 1.819,3.085 2.382,4.784c20.438,24.022 31.346,46.449 11.676,47c-18.311,0.531 -40.265,33.275 -45.522,41.525c0.168,0.667 0.371,1.324 0.61,1.969c0.238,0.645 25.754,-42.805 46.704,-43.415c20.95,-0.611 7.167,-26.129 -15.85,-51.863Z" style="fill-opacity:0.1;fill-rule:nonzero;"/><path d="M2179.12,1946.94c0,5.376 -0.61,9.727 -1.339,9.727c-0.728,0 -1.358,-4.351 -1.358,-9.727c0,-5.375 0.748,-2.835 1.496,-2.835c0.749,0 1.201,-2.54 1.201,2.835Z" style="fill:#ffd037;fill-rule:nonzero;"/><path d="M2186.59,1953.36c-4.706,2.56 -8.821,4.115 -9.176,3.466c-0.354,-0.65 3.17,-3.269 7.876,-5.907c4.706,-2.639 2.855,-0.709 3.21,0c0.354,0.708 2.815,-0.138 -1.91,2.441Z" style="fill:#ffd037;fill-rule:nonzero;"/><path d="M2095.76,1927.49c0,0 -11.676,15.259 5.395,38.316c17.071,23.057 31.13,42.51 25.439,56.884c0,0 -25.734,-42.806 -46.704,-43.416c-20.969,-0.611 -7.088,-26.05 15.87,-51.784Z" style="fill:#9e0031;fill-rule:nonzero;"/><path d="M2095.76,1927.49c-1.017,1.474 -1.819,3.085 -2.382,4.784c-20.438,24.022 -31.346,46.449 -11.676,47c18.291,0.531 40.265,33.275 45.522,41.525c-0.165,0.67 -0.375,1.328 -0.63,1.969c-0.254,0.642 -25.734,-42.805 -46.704,-43.415c-20.969,-0.611 -7.088,-26.129 15.87,-51.863Z" style="fill-opacity:0.1;fill-rule:nonzero;"/><path d="M2074.06,1946.94c0,5.376 0.591,9.727 1.339,9.727c0.748,0 1.359,-4.351 1.359,-9.727c0,-5.375 -0.768,-2.835 -1.497,-2.835c-0.728,0 -1.201,-2.54 -1.201,2.835Z" style="fill:#ffd037;fill-rule:nonzero;"/><path d="M2066.62,1953.36c4.706,2.56 8.821,4.115 9.176,3.466c0.354,-0.65 -3.17,-3.269 -7.876,-5.907c-4.706,-2.639 -2.855,-0.709 -3.21,0c-0.354,0.708 -2.815,-0.138 1.91,2.441Z" style="fill:#ffd037;fill-rule:nonzero;"/><ellipse cx="2126.61" cy="2120.76" rx="122.076" ry="18.725" style="fill:#9e0031;fill-opacity:0.1;"/><path d="M2189.44,2002.12l-0.591,4.765l-0.827,6.734l-0.335,2.815l-0.827,6.734l-0.354,2.816l-0.807,6.714l-9.353,76.593c-0.827,6.832 -11.991,12.168 -25.478,12.168l-48.536,0c-13.487,0 -24.631,-5.336 -25.478,-12.168l-9.353,-76.593l-0.827,-6.714l-0.334,-2.816l-0.827,-6.734l-0.355,-2.815l-0.807,-6.734l-0.591,-4.765c-0.453,-3.938 5.573,-7.128 13.212,-7.128l99.276,0c7.62,0 13.664,3.249 13.192,7.128Z" style="fill:#65617d;fill-rule:nonzero;"/><path d="M2188.85,2006.88l-0.807,6.734l-122.864,0l-0.827,-6.734l124.498,0Z" style="fill:#9d9cb5;fill-rule:nonzero;"/><path d="M2187.69,2016.43l-0.807,6.734l-120.54,0l-0.827,-6.734l122.174,0Z" style="fill:#9d9cb5;fill-rule:nonzero;"/><path d="M2186.53,2025.98l-0.827,6.734l-118.198,0l-0.807,-6.734l119.832,0Z" style="fill:#9d9cb5;fill-rule:nonzero;"/></g><clipPath id="_clip3"><rect id="undraw_remote_meeting_cbfk" x="1034.79" y="109.755" width="501.79" height="336.343"/></clipPath><g clip-path="url(#_clip3)"><path d="M1529.84,446.099l-220.527,0c-3.693,-0.004 -6.73,-3.041 -6.734,-6.733l0,-155.889c0.004,-3.692 3.041,-6.729 6.734,-6.733l220.527,0c3.692,0.004 6.729,3.041 6.734,6.733l0,155.889c-0.005,3.692 -3.042,6.729 -6.734,6.733Z" style="fill:#e6e6e6;fill-rule:nonzero;"/><path d="M1520.66,285.924l-202.163,0c-3.693,0.004 -6.731,3.042 -6.736,6.736l0,137.522c0.005,3.694 3.043,6.732 6.736,6.737l202.163,0c3.693,-0.006 6.729,-3.044 6.732,-6.737l0,-137.522c-0.003,-3.693 -3.039,-6.731 -6.732,-6.736Z" style="fill:#fff;fill-rule:nonzero;"/><circle cx="1412.38" cy="345.264" r="27.148" style="fill:#a0616a;"/><path d="M1443.89,401.984l-48.479,4.848c4.481,-20.172 5.568,-39.018 0,-55.266l33.935,0c-1.843,13.539 5.047,31.342 14.544,50.418Z" style="fill:#a0616a;fill-rule:nonzero;"/><path d="M1477.34,402.134c-0.604,11.822 -1.306,23.45 -2.169,34.785l-113.35,0c-1.342,-7.484 -2.972,-15.014 -4.893,-22.592c-1.251,-4.876 1.221,-9.994 5.817,-12.046l3.617,-1.61l31.95,-14.199l0.376,0.081l13.198,2.825l23.273,-5.817l0.406,0.081l32.626,6.675c0.964,0.2 1.9,0.521 2.784,0.956c4.088,2.024 6.597,6.304 6.365,10.861Z" style="fill:#9e0031;fill-rule:nonzero;"/><path d="M1495.05,436.919l-24.492,0l-4.369,-46.571c11.522,1.148 21.039,9.678 23.435,21.007l5.426,25.564Z" style="fill:#9e0031;fill-rule:nonzero;"/><path d="M1369.16,436.919l-23.486,0l0.844,-8.236c0.248,-12.632 8.071,-23.945 19.803,-28.637l0.045,0.625l2.794,36.248Z" style="fill:#9e0031;fill-rule:nonzero;"/><path d="M1390.82,329.796c12.237,-7.001 24.49,-2.528 36.764,16.574l2.51,20.349c18.422,-17.453 17.49,-41.269 -3.169,-50.956c-2.031,-0.953 -3.999,-2.036 -6.209,-1.653c-9.555,-5.117 -20.978,-1.274 -25.765,6.921c-3.817,0.661 -9.289,8.244 -9.092,12.113l4.961,-3.348Z" style="fill:#2f2e41;fill-rule:nonzero;"/><ellipse cx="1426.44" cy="346.719" rx="3.393" ry="4.363" style="fill:#a0616a;"/><path d="M1324.14,325.385l-280.784,0c-4.701,-0.005 -8.568,-3.872 -8.573,-8.573l0,-198.483c0.005,-4.701 3.872,-8.568 8.573,-8.574l280.784,0c4.701,0.006 8.568,3.873 8.573,8.574l0,198.483c-0.005,4.701 -3.872,8.568 -8.573,8.573Z" style="fill:#e6e6e6;fill-rule:nonzero;"/><path d="M1312.46,121.444l-257.402,0c-4.703,0.006 -8.571,3.874 -8.577,8.577l0,175.098c0.006,4.703 3.874,8.571 8.577,8.577l257.402,0c4.701,-0.006 8.567,-3.875 8.57,-8.577l0,-175.098c-0.003,-4.702 -3.869,-8.571 -8.57,-8.577Z" style="fill:#fff;fill-rule:nonzero;"/><path d="M1244.1,246.027l-79.391,18.168l-33.544,-63.265l67.886,-26.504l45.049,71.601Z" style="fill:#2f2e41;fill-rule:nonzero;"/><circle cx="1177.04" cy="211.359" r="28.757" style="fill:#ffb9b9;"/><path d="M1173.7,306.119l69.807,-10.078c-10.421,-18.861 -21.165,-36.05 -35.604,-34.129c-12.845,-8.99 -13.586,-23.443 -10.337,-39.695l-34.94,9.34c3.074,10.018 1.885,18.816 -6.304,25.608c11.442,16.106 18.846,32.363 17.378,48.954Z" style="fill:#ffb9b9;fill-rule:nonzero;"/><path d="M1258.21,313.696l-110.46,0c-1.566,-2.102 -3.23,-4.135 -4.994,-6.099c-0.116,-0.136 -0.239,-0.279 -0.362,-0.414l2.969,-41.974l0.297,-4.243c0.153,-2.212 1.595,-4.139 3.674,-4.909l0.007,0c0.166,-0.071 0.336,-0.129 0.511,-0.175l9.159,-2.445l0.912,-0.246l0.129,0.155l5.143,5.964l3.434,3.991l15.188,17.627c2.754,3.195 6.672,5.161 10.88,5.459l5.621,0.394c9.948,0.705 16.992,-7.348 16.992,-15.892c0.003,-3.001 -0.877,-5.937 -2.529,-8.442c-0.412,-0.64 -0.87,-1.25 -1.371,-1.824l6.391,1.029l9.159,1.481l10.323,24.269c10.375,8.228 16.928,16.96 18.927,26.294Z" style="fill:#9e0031;fill-rule:nonzero;"/><path d="M1124.98,277.441l13.887,25.11l-7.833,7.29l-4.146,3.855l-35.991,0l21.572,-22.949l12.511,-13.306Z" style="fill:#ffb9b9;fill-rule:nonzero;"/><path d="M1265.77,313.696l-33.881,0l-3.59,-15.453l-7.652,-32.943l-0.847,-3.648l-0.02,-0.084l8.014,0.485c9.105,0.554 17.19,6.107 20.977,14.405l16.999,37.238Z" style="fill:#9e0031;fill-rule:nonzero;"/><path d="M1131.97,311.247l33.325,-11.283l-11.75,-39.975c-0.782,-2.662 -3.408,-4.379 -6.16,-4.028c-1.132,0.145 -2.194,0.627 -3.047,1.384l-34.044,30.203c6.513,10.721 13.447,10.99 21.676,23.699Z" style="fill:#9e0031;fill-rule:nonzero;"/><path d="M1196.15,164.672c0,0 17.587,3.308 21.654,25.242c0.636,3.699 0.752,7.469 0.344,11.2c-0.406,4.222 0.183,13.14 9.351,23.64c5.982,6.81 11.556,13.969 16.692,21.437l-18.377,4.892l-8.21,-30.447c-3.981,-14.761 -10.114,-28.856 -18.2,-41.831l-0.169,-0.271c0,0 -6.104,16.309 -22.463,18.545l5.044,-6.641c0,0 -19.124,11.055 -29.959,14.432c-2.965,0.925 -4.999,3.689 -4.999,6.796c0,2.174 0.997,4.233 2.702,5.583c0.077,0.06 0.155,0.121 0.235,0.181c7.969,6.053 24.227,20.496 17.804,34.467c-6.423,13.972 1.067,16.519 1.067,16.519l-13.811,-5.254l-6.322,-2.707l0.639,4.674l-30.861,0.646c0,0 -8.339,-0.05 6.474,-22.311c0,0 3.574,-8.346 0.64,-14.723c-2.25,-4.89 -3.644,-10.142 -3.421,-15.52c0.933,-22.443 10.387,-68.1 74.146,-48.549Z" style="fill:#2f2e41;fill-rule:nonzero;"/><path d="M1432.34,248.124c-0.28,0 -0.522,-0.198 -0.58,-0.471c-2.815,-13.543 -12.559,-25.99 -27.435,-35.046c-15.071,-9.175 -34.423,-14.228 -54.488,-14.228c-0.325,0 -0.592,-0.267 -0.592,-0.592c0,-0.325 0.267,-0.592 0.592,-0.592c20.279,0 39.849,5.115 55.104,14.401c15.159,9.229 25.095,21.948 27.979,35.816c0.008,0.039 0.012,0.08 0.012,0.12c0,0.325 -0.267,0.592 -0.592,0.592c0,0 0,0 0,0l0,0Z" style="fill:#3f3d56;fill-rule:nonzero;"/><path d="M1426.12,246.542l7.086,9.438l4.632,-10.855l-11.718,1.417Z" style="fill:#3f3d56;fill-rule:nonzero;"/><path d="M1280.65,397.84c-20.279,0 -39.849,-5.114 -55.103,-14.401c-15.16,-9.229 -25.096,-21.948 -27.979,-35.816c-0.009,-0.04 -0.013,-0.082 -0.013,-0.123c0,-0.324 0.267,-0.592 0.592,-0.592c0.28,0 0.524,0.2 0.579,0.475c2.816,13.543 12.56,25.989 27.436,35.045c15.072,9.175 34.423,14.229 54.488,14.229c0.325,0 0.592,0.267 0.592,0.591c0,0.325 -0.267,0.592 -0.592,0.592l0,0Z" style="fill:#3f3d56;fill-rule:nonzero;"/><path d="M1204.37,348.493l-7.086,-9.438l-4.632,10.855l11.718,-1.417Z" style="fill:#3f3d56;fill-rule:nonzero;"/></g><rect x="1891.15" y="438.724" width="390.187" height="270.13" style="fill:url(#_Linear4);"/><rect x="1896" y="442.696" width="381.801" height="254.24" style="fill:#fff;"/><rect x="1896" y="442.696" width="381.801" height="25.159" style="fill:#bdbdbd;"/><circle cx="1914.06" cy="455.276" r="6.179" style="fill:#ff5252;"/><circle cx="1931.76" cy="455.276" r="6.179" style="fill:#ff0;"/><circle cx="1949.45" cy="455.276" r="6.179" style="fill:#69f0ae;"/><rect x="1931.76" y="493.897" width="64.884" height="7.504" style="fill:#e0e0e0;"/><rect x="1931.76" y="506.256" width="64.884" height="7.504" style="fill:#e0e0e0;"/><rect x="1931.76" y="518.615" width="108.14" height="7.504" style="fill:#e0e0e0;"/><rect x="1931.76" y="530.974" width="128.444" height="7.504" style="fill:#e0e0e0;"/><rect x="1937.05" y="577.761" width="19.421" height="90.926" style="fill:#f5f5f5;"/><rect x="1969.28" y="577.761" width="19.421" height="90.926" style="fill:#f5f5f5;"/><rect x="2001.5" y="577.761" width="19.421" height="90.926" style="fill:#f5f5f5;"/><rect x="2033.72" y="577.761" width="19.421" height="90.926" style="fill:#f5f5f5;"/><rect x="1937.05" y="623.224" width="19.421" height="45.463" style="fill:#2196f3;"/><g opacity="0.4"><rect x="1937.05" y="604.244" width="19.421" height="19.862" style="fill:#2196f3;"/></g><rect x="1969.28" y="633.093" width="19.421" height="35.594" style="fill:#69f0ae;"/><rect x="1969.28" y="609.982" width="19.421" height="23.111" style="fill:#69f0ae;fill-opacity:0.4;"/><rect x="2001.5" y="616.603" width="19.421" height="52.084" style="fill:#9e0031;"/><rect x="2001.5" y="598.506" width="19.421" height="18.097" style="fill:#9e0031;fill-opacity:0.4;"/><rect x="2033.72" y="634.7" width="19.421" height="33.987" style="fill:#ff0;"/><rect x="2033.72" y="624.107" width="19.421" height="10.593" style="fill:#ff0;fill-opacity:0.4;"/><path d="M2170.34,513.76l-0.229,0l0,96.222l0.229,0c26.393,0 48.112,-21.718 48.112,-48.111c0,-26.393 -21.719,-48.111 -48.112,-48.111Z" style="fill:url(#_Linear5);fill-rule:nonzero;"/><path d="M2124.86,546.1c-1.754,5.066 -2.649,10.389 -2.649,15.75c0,26.313 21.578,48 47.892,48.132l0,-41.375l-45.243,-22.507Z" style="fill:url(#_Linear6);fill-rule:nonzero;"/><path d="M2170.11,513.76c-20.366,0.089 -38.567,13.1 -45.243,32.34l45.234,22.511l0.009,-54.851Z" style="fill:url(#_Linear7);fill-rule:nonzero;"/><path d="M2170.33,515.967l-0.22,0l0,91.808l0.22,0c25.183,0 45.905,-20.722 45.905,-45.904c0,-25.182 -20.722,-45.904 -45.905,-45.904Z" style="fill:#9e0031;fill-rule:nonzero;"/><path d="M2126.95,546.824c-1.673,4.833 -2.528,9.911 -2.528,15.026c0,25.103 20.583,45.794 45.687,45.925l0,-39.477l-43.159,-21.474Z" style="fill:#2196f3;fill-rule:nonzero;"/><path d="M2170.11,515.967c-19.427,0.088 -36.789,12.499 -43.159,30.853l43.159,21.478l0,-52.331Z" style="fill:#69f0ae;fill-rule:nonzero;"/><rect x="2122.44" y="619.693" width="5.738" height="6.179" style="fill:#2196f3;"/><rect x="2170.11" y="619.693" width="5.738" height="6.179" style="fill:#7c4dff;"/><rect x="2217.78" y="619.693" width="5.738" height="6.179" style="fill:#69f0ae;"/><rect x="2129.94" y="621.017" width="19.862" height="3.531" style="fill:#f5f5f5;"/><rect x="2178.05" y="621.017" width="19.862" height="3.531" style="fill:#f5f5f5;"/><rect x="2226.16" y="621.017" width="19.862" height="3.531" style="fill:#f5f5f5;"/><g opacity="0.5"><path d="M540.133,315.482c0,-1.148 -0.932,-2.08 -2.08,-2.08l-232.225,0c-1.148,0 -2.08,0.932 -2.08,2.08l0,353.168c0,1.148 0.932,2.08 2.08,2.08l232.225,0c1.148,0 2.08,-0.932 2.08,-2.08l0,-353.168Z" style="fill:url(#_Linear8);"/></g><path d="M537.105,318.108c0,-1.148 -0.932,-2.08 -2.08,-2.08l-226.165,0c-1.148,0 -2.08,0.932 -2.08,2.08l0,345.934c0,1.148 0.932,2.08 2.08,2.08l226.165,0c1.148,0 2.08,-0.932 2.08,-2.08l0,-345.934Z" style="fill:#fff;"/><path d="M375.876,382.6c0,-1.148 -0.932,-2.08 -2.08,-2.08l-41.904,0c-1.148,0 -2.08,0.932 -2.08,2.08l0,37.301c0,1.148 0.932,2.08 2.08,2.08l41.904,0c1.148,0 2.08,-0.932 2.08,-2.08l0,-37.301Z" style="fill:#44001a;"/><path d="M514.073,382.591c0,-1.143 -0.928,-2.071 -2.071,-2.071l-120.235,0c-1.143,0 -2.071,0.928 -2.071,2.071l0,0.467c0,1.143 0.928,2.071 2.071,2.071l120.235,0c1.143,0 2.071,-0.928 2.071,-2.071l0,-0.467Z" style="fill:#e0e0e0;"/><path d="M493.089,396.407c0,-1.143 -0.928,-2.071 -2.071,-2.071l-99.251,0c-1.143,0 -2.071,0.928 -2.071,2.071l0,0.466c0,1.143 0.928,2.071 2.071,2.071l99.251,0c1.143,0 2.071,-0.928 2.071,-2.071l0,-0.466Z" style="fill:#e0e0e0;"/><path d="M375.876,447.088c0,-1.148 -0.932,-2.08 -2.08,-2.08l-41.904,0c-1.148,0 -2.08,0.932 -2.08,2.08l0,37.301c0,1.148 0.932,2.08 2.08,2.08l41.904,0c1.148,0 2.08,-0.932 2.08,-2.08l0,-37.301Z" style="fill:#44001a;"/><path d="M514.073,447.079c0,-1.143 -0.928,-2.071 -2.071,-2.071l-120.235,0c-1.143,0 -2.071,0.928 -2.071,2.071l0,0.467c0,1.143 0.928,2.071 2.071,2.071l120.235,0c1.143,0 2.071,-0.928 2.071,-2.071l0,-0.467Z" style="fill:#e0e0e0;"/><path d="M514.073,460.899c0,-1.143 -0.928,-2.07 -2.071,-2.07l-120.235,0c-1.143,0 -2.071,0.927 -2.071,2.07l0,0.467c0,1.143 0.928,2.071 2.071,2.071l120.235,0c1.143,0 2.071,-0.928 2.071,-2.071l0,-0.467Z" style="fill:#e0e0e0;"/><path d="M375.876,511.581c0,-1.148 -0.932,-2.08 -2.08,-2.08l-41.904,0c-1.148,0 -2.08,0.932 -2.08,2.08l0,37.301c0,1.147 0.932,2.079 2.08,2.079l41.904,0c1.148,0 2.08,-0.932 2.08,-2.079l0,-37.301Z" style="fill:#44001a;"/><path d="M514.073,511.572c0,-1.143 -0.928,-2.071 -2.071,-2.071l-120.235,0c-1.143,0 -2.071,0.928 -2.071,2.071l0,0.466c0,1.143 0.928,2.071 2.071,2.071l120.235,0c1.143,0 2.071,-0.928 2.071,-2.071l0,-0.466Z" style="fill:#e0e0e0;"/><path d="M403.516,525.392c0,-1.143 -0.928,-2.071 -2.07,-2.071l-9.679,0c-1.143,0 -2.071,0.928 -2.071,2.071l0,0.467c0,1.143 0.928,2.07 2.071,2.07l9.679,0c1.142,0 2.07,-0.927 2.07,-2.07l0,-0.467Z" style="fill:#e0e0e0;"/><g opacity="0.5"><path d="M683.687,430.532c0,-1.148 -0.932,-2.08 -2.08,-2.08l-228.68,0c-1.148,0 -2.08,0.932 -2.08,2.08l0,205.874c0,1.148 0.932,2.08 2.08,2.08l228.68,0c1.148,0 2.08,-0.932 2.08,-2.08l0,-205.874Z" style="fill:url(#_Linear9);"/></g><path d="M680.484,432.64c0,-1.148 -0.932,-2.08 -2.08,-2.08l-221.881,0c-1.148,0 -2.08,0.932 -2.08,2.08l0,199.278c0,1.148 0.932,2.08 2.08,2.08l221.881,0c1.148,0 2.08,-0.932 2.08,-2.08l0,-199.278Z" style="fill:#fff;"/><path d="M525.203,476.346c0,-1.148 -0.932,-2.08 -2.08,-2.08l-44.405,0c-1.148,0 -2.08,0.932 -2.08,2.08l0,39.552c0,1.148 0.932,2.08 2.08,2.08l44.405,0c1.148,0 2.08,-0.932 2.08,-2.08l0,-39.552Z" style="fill:#44001a;"/><path d="M670.902,476.346c0,-1.148 -0.932,-2.08 -2.08,-2.08l-126.97,0c-1.148,0 -2.08,0.932 -2.08,2.08l0,0.698c0,1.148 0.932,2.08 2.08,2.08l126.97,0c1.148,0 2.08,-0.932 2.08,-2.08l0,-0.698Z" style="fill:#e0e0e0;"/><path d="M670.902,490.915c0,-1.148 -0.932,-2.08 -2.08,-2.08l-126.97,0c-1.148,0 -2.08,0.932 -2.08,2.08l0,0.698c0,1.148 0.932,2.08 2.08,2.08l126.97,0c1.148,0 2.08,-0.932 2.08,-2.08l0,-0.698Z" style="fill:#e0e0e0;"/><path d="M670.902,543.802c0,-1.148 -0.932,-2.08 -2.08,-2.08l-194.961,0c-1.148,0 -2.08,0.932 -2.08,2.08l0,0.698c0,1.148 0.932,2.08 2.08,2.08l194.961,0c1.148,0 2.08,-0.932 2.08,-2.08l0,-0.698Z" style="fill:#e0e0e0;"/><path d="M670.902,558.371c0,-1.148 -0.932,-2.08 -2.08,-2.08l-194.961,0c-1.148,0 -2.08,0.932 -2.08,2.08l0,0.698c0,1.148 0.932,2.08 2.08,2.08l194.961,0c1.148,0 2.08,-0.932 2.08,-2.08l0,-0.698Z" style="fill:#e0e0e0;"/><path d="M670.902,577.798c0,-1.148 -0.932,-2.08 -2.08,-2.08l-194.961,0c-1.148,0 -2.08,0.932 -2.08,2.08l0,0.698c0,1.147 0.932,2.079 2.08,2.079l194.961,0c1.148,0 2.08,-0.932 2.08,-2.079l0,-0.698Z" style="fill:#e0e0e0;"/><path d="M622.337,592.367c0,-1.148 -0.932,-2.08 -2.08,-2.08l-146.396,0c-1.148,0 -2.08,0.932 -2.08,2.08l0,0.697c0,1.148 0.932,2.08 2.08,2.08l146.396,0c1.148,0 2.08,-0.932 2.08,-2.08l0,-0.697Z" style="fill:#e0e0e0;"/><defs><linearGradient id="_Linear2" x1="0" y1="0" x2="1" y2="0" gradientUnits="userSpaceOnUse" gradientTransform="matrix(6.05139e-14,-988.266,988.266,6.05139e-14,1364.4,1698.52)"><stop offset="0" style="stop-color:#808080;stop-opacity:0.25"/><stop offset="0.54" style="stop-color:#808080;stop-opacity:0.12"/><stop offset="1" style="stop-color:#808080;stop-opacity:0.1"/></linearGradient><linearGradient id="_Linear4" x1="0" y1="0" x2="1" y2="0" gradientUnits="userSpaceOnUse" gradientTransform="matrix(1.65407e-14,-270.13,270.13,1.65407e-14,2086.24,708.853)"><stop offset="0" style="stop-color:#808080;stop-opacity:0.25"/><stop offset="0.54" style="stop-color:#808080;stop-opacity:0.12"/><stop offset="1" style="stop-color:#808080;stop-opacity:0.1"/></linearGradient><linearGradient id="_Linear5" x1="0" y1="0" x2="1" y2="0" gradientUnits="userSpaceOnUse" gradientTransform="matrix(5.89194e-15,-96.2227,96.2227,5.89194e-15,2194.27,609.982)"><stop offset="0" style="stop-color:#808080;stop-opacity:0.25"/><stop offset="0.54" style="stop-color:#808080;stop-opacity:0.12"/><stop offset="1" style="stop-color:#808080;stop-opacity:0.1"/></linearGradient><linearGradient id="_Linear6" x1="0" y1="0" x2="1" y2="0" gradientUnits="userSpaceOnUse" gradientTransform="matrix(3.91138e-15,-63.8778,63.8778,3.91138e-15,2146.16,609.978)"><stop offset="0" style="stop-color:#808080;stop-opacity:0.25"/><stop offset="0.54" style="stop-color:#808080;stop-opacity:0.12"/><stop offset="1" style="stop-color:#808080;stop-opacity:0.1"/></linearGradient><linearGradient id="_Linear7" x1="0" y1="0" x2="1" y2="0" gradientUnits="userSpaceOnUse" gradientTransform="matrix(3.35814e-15,-54.8425,54.8425,3.35814e-15,2147.48,568.607)"><stop offset="0" style="stop-color:#808080;stop-opacity:0.25"/><stop offset="0.54" style="stop-color:#808080;stop-opacity:0.12"/><stop offset="1" style="stop-color:#808080;stop-opacity:0.1"/></linearGradient><linearGradient id="_Linear8" x1="0" y1="0" x2="1" y2="0" gradientUnits="userSpaceOnUse" gradientTransform="matrix(2.188e-14,-357.328,357.328,2.188e-14,421.94,670.73)"><stop offset="0" style="stop-color:#808080;stop-opacity:0.25"/><stop offset="0.54" style="stop-color:#808080;stop-opacity:0.12"/><stop offset="1" style="stop-color:#808080;stop-opacity:0.1"/></linearGradient><linearGradient id="_Linear9" x1="0" y1="0" x2="1" y2="0" gradientUnits="userSpaceOnUse" gradientTransform="matrix(1.28606e-14,-210.03,210.03,1.28606e-14,567.265,638.482)"><stop offset="0" style="stop-color:#808080;stop-opacity:0.25"/><stop offset="0.54" style="stop-color:#808080;stop-opacity:0.12"/><stop offset="1" style="stop-color:#808080;stop-opacity:0.1"/></linearGradient></defs></svg>