<?xml version="1.0" encoding="UTF-8" standalone="no"?><!DOCTYPE svg PUBLIC "-//W3C//DTD SVG 1.1//EN" "http://www.w3.org/Graphics/SVG/1.1/DTD/svg11.dtd"><svg width="100%" height="100%" viewBox="0 0 2246 1588" version="1.1" xmlns="http://www.w3.org/2000/svg" xmlns:xlink="http://www.w3.org/1999/xlink" xml:space="preserve" xmlns:serif="http://www.serif.com/" style="fill-rule:evenodd;clip-rule:evenodd;stroke-linejoin:round;stroke-miterlimit:2;"><rect id="Artboard1" x="0" y="0" width="2245.34" height="1587.4" style="fill:none;"/><path id="Bookmark" d="M800.236,230.384c-112.491,0 -227.598,39.489 -316.544,104.108c-7.848,7.18 -13.08,16.155 -13.08,23.335l0,682.086c0,14.36 23.544,23.335 39.241,16.155c125.571,-52.054 266.839,-98.723 347.937,-98.723c104.643,0 183.125,48.464 235.446,123.852c5.232,7.18 13.08,10.77 23.545,10.77l18.312,0c10.465,0 18.313,-3.59 23.545,-10.77c52.321,-75.388 128.187,-123.852 235.446,-123.852c81.098,0 222.366,46.669 347.937,98.723c18.313,7.18 39.241,-1.795 39.241,-16.155l0,-682.086c0,-8.975 -5.232,-17.95 -13.08,-23.335c-88.946,-66.414 -204.053,-104.108 -316.544,-104.108c-122.956,0 -243.295,46.669 -324.393,125.648c-86.33,-77.184 -204.053,-125.648 -327.009,-125.648Zm0,26.925c122.956,0 240.679,53.849 298.232,134.622l0,628.238c-73.25,-71.799 -167.428,-93.338 -240.678,-93.338c-96.795,0 -206.67,37.694 -334.857,93.338l0,-655.162c0,-8.975 5.232,-17.95 15.696,-25.13c70.634,-48.464 164.813,-82.568 261.607,-82.568Zm926.089,762.86c-128.188,-55.644 -238.062,-93.338 -334.857,-93.338c-115.107,0 -190.973,44.874 -240.678,93.338l0,-628.238c47.089,-73.594 175.276,-134.622 298.232,-134.622c96.794,0 188.357,34.104 261.606,82.568c10.465,7.18 15.697,16.155 15.697,25.13l0,655.162Z" style="fill:#710b7e;fill-opacity:0.75;fill-rule:nonzero;"/><text x="282.63px" y="1384.38px" style="font-family:'Ramaraja';font-size:284.301px;fill:#710b7e;">No Image Found</text></svg>